<?xml version="1.0" standalone="no"?>
<!DOCTYPE svg PUBLIC "-//W3C//DTD SVG 1.1//EN" "http://www.w3.org/Graphics/SVG/1.1/DTD/svg11.dtd" >
<svg xmlns="http://www.w3.org/2000/svg">
    <symbol id="facebook" viewBox="0 0 32 32">
        <path d="M18.56 0h5.12v5.504h-3.072c-1.536 0-2.688 1.152-2.688 2.688v3.584h5.76v6.272h-5.76v13.952h-6.4v-13.952h-4.48v-6.272h4.48v-4.864c0.128-3.84 3.2-6.912 7.040-6.912z"></path>
    </symbol>
    <symbol id="instagram" viewBox="0 0 32 32">
        <path d="M20.864 10.88c-2.688-2.688-7.168-2.688-9.856 0s-2.688 7.040 0 9.728v0c2.688 2.688 7.168 2.816 9.856 0.128 2.816-2.688 2.816-7.040 0.128-9.728-0.128-0.128-0.128-0.128-0.128-0.128v0 0zM26.368 13.44c0.128 0.768 0.256 1.408 0.256 2.176 0 2.816-1.152 5.504-3.072 7.424v0c-4.224 4.096-10.88 4.096-15.104 0v0c-2.048-1.92-3.2-4.608-3.072-7.424 0-0.768 0.128-1.536 0.256-2.176h-1.792v11.136c0 2.048 1.664 3.584 3.712 3.584h16.896c2.048 0 3.712-1.664 3.712-3.584v-11.136h-1.792zM20.736 6.4c-0.64 1.92 0.512 4.096 2.56 4.608 0.384 0.128 0.64 0.128 1.024 0.128s0.768 0 1.152-0.128c2.048-0.512 3.2-2.688 2.56-4.608s-2.688-3.072-4.736-2.56c-1.152 0.384-2.176 1.28-2.56 2.56zM4.864 0h22.272c2.688 0 4.864 2.176 4.864 4.736v22.528c0 2.56-2.176 4.736-4.864 4.736h-22.272c-2.688 0-4.864-2.176-4.864-4.736v-22.528c0-2.56 2.176-4.736 4.864-4.736v0z"></path>
    </symbol>
    <symbol id="vimeo" viewBox="0 0 32 32">
        <path id="vim" d="M32 8.064c-0.128 3.328-2.304 7.808-6.528 13.568-4.352 6.016-8.064 8.96-11.008 8.96-1.92 0-3.456-1.792-4.736-5.504l-2.56-10.112c-1.024-3.456-2.048-5.376-3.2-5.376-0.896 0.384-1.792 0.896-2.56 1.664l-1.408-2.048c1.536-1.536 3.072-2.944 4.608-4.48 2.048-1.92 3.712-2.944 4.736-3.072 2.432-0.256 4.096 1.536 4.608 5.376 0.64 4.224 1.024 6.784 1.28 7.808 0.768 3.456 1.536 5.248 2.304 5.248 0.64 0 1.664-1.152 3.072-3.328 1.024-1.536 1.792-3.328 2.176-5.12 0.256-1.92-0.512-2.944-2.176-2.944-0.768 0-1.536 0.256-2.304 0.512 1.536-5.504 4.608-8.192 8.96-7.936 3.328 0.128 4.864 2.432 4.736 6.784z"></path>
    </symbol>
    <symbol id="youtube" viewBox="0 0 32 32">
        <path d="M27.008 23.424h-2.048v-1.024c0-0.512 0.384-0.768 1.024-0.768h0.128c0.512 0 1.024 0.384 1.024 0.768l-0.128 1.024zM19.2 21.248c-0.512 0-1.024 0.256-1.024 0.64v4.992c0 0.384 0.384 0.64 1.024 0.64 0.512 0 1.024-0.256 1.024-0.64v-4.992c-0.128-0.384-0.512-0.64-1.024-0.64zM32 18.432v9.472c0 2.304-2.304 4.096-5.248 4.096h-21.504c-2.944 0-5.248-1.792-5.248-4.096v-9.472c0-2.304 2.304-4.096 5.248-4.096h21.504c2.944 0 5.248 1.792 5.248 4.096zM6.656 28.928v-9.984h2.688v-1.536h-7.168v1.408h2.176v9.984h2.304v0.128zM14.72 20.48h-2.176v5.248c0 0.768 0 1.152 0 1.28-0.128 0.384-1.024 0.896-1.28 0 0-0.128 0-0.512 0-1.28v-5.376h-2.304v5.248c0 0.768 0 1.408 0 1.664 0 0.512 0 1.024 0.512 1.408 1.024 0.64 2.944-0.128 3.456-0.896v1.152h1.792v-8.448zM21.76 26.496v-4.48c0-1.664-1.536-2.688-3.584-1.28v-3.328h-2.176v11.392h1.792l0.128-0.768c2.432 1.92 3.84 0.64 3.84-1.536zM28.8 25.984h-1.664v0.896c0 0.384-0.384 0.768-0.896 0.768h-0.384c-0.512 0-0.896-0.384-0.896-0.768v0-2.048h3.84v-1.152c0-0.896 0-1.792-0.128-2.304-0.256-1.536-2.944-1.792-4.352-1.024-0.384 0.256-0.768 0.64-0.896 1.024-0.128 0.512-0.256 1.024-0.256 1.92v2.688c0 4.352 6.4 3.712 5.632 0zM20.224 11.648c0.128 0.256 0.256 0.384 0.512 0.512s0.512 0.256 0.896 0.256c0.384 0 0.64-0.128 0.896-0.256s0.512-0.384 0.64-0.64v0.768h2.432v-8.832h-1.92v6.784c0 0.384-0.384 0.64-0.768 0.64s-0.768-0.256-0.768-0.64v-6.784h-2.048v5.888c0 0.768 0 1.28 0 1.536-0.128 0.256 0 0.512 0.128 0.768zM12.672 6.656c0-0.896 0.128-1.536 0.256-1.92 0.128-0.512 0.512-0.896 0.896-1.152s1.024-0.384 1.664-0.384c0.512 0 1.024 0.128 1.536 0.256 0.384 0.128 0.768 0.384 0.896 0.64 0.256 0.256 0.384 0.64 0.512 0.896s0.128 0.768 0.128 1.408v2.176c0 0.768 0 1.408-0.128 1.792-0.128 0.512-0.256 0.896-0.512 1.152-0.256 0.384-0.512 0.512-0.896 0.768-0.384 0.128-0.896 0.256-1.408 0.256s-1.024-0.128-1.408-0.256c-0.384-0.128-0.64-0.384-0.896-0.64s-0.384-0.64-0.512-1.024c-0.128-0.384-0.128-1.024-0.128-1.792v-2.176zM14.592 10.112c0 0.512 0.384 0.896 1.024 0.896 0.512 0 1.024-0.384 1.024-0.896v-4.608c0-0.512-0.384-0.896-1.024-0.896-0.512 0-1.024 0.384-1.024 0.896v4.608zM7.808 12.544h2.304v-6.784l2.816-5.76h-2.56l-1.408 4.352-1.664-4.352h-2.56l2.944 5.76 0.128 6.784z"></path>
    </symbol>
</svg>